<svg xmlns="http://www.w3.org/2000/svg" viewBox="0 0 138.04 333.93"><defs><style>.cls-1{fill:#424242;}.cls-2{fill:#e91e63;}.cls-3{fill:#fff;}.cls-4{fill:#03a9f4;}.cls-5{fill:none;stroke:#fff;stroke-miterlimit:10;stroke-width:7px;}</style></defs><g id="Layer_2" data-name="Layer 2"><g id="Extension"><path class="cls-1" d="M69,0h0C30.9,0,0,18.4,0,41.09V141.25C0,160,53.15,168.54,63.49,177.64A19.17,19.17,0,0,1,66.05,179a14.88,14.88,0,0,1,1.89,1.36,12.29,12.29,0,0,1,1.48-1.12,15.57,15.57,0,0,1,2-1.07C83.47,167.55,138,161.43,138,141.25V41.09C138,18.4,107.14,0,69,0Z"/></g><g id="Hamburger"><g id="PINK_CIRCLE" data-name="PINK CIRCLE"><circle class="cls-2" cx="69.02" cy="269.93" r="64"/></g><g id="top"><rect id="Bar_3" data-name="Bar 3" class="cls-3" x="34.02" y="246.43" width="70" height="7" rx="3.5"/></g><g id="bottom"><rect id="Bar_2" data-name="Bar 2" class="cls-3" x="34.02" y="286.43" width="70" height="7" rx="3.5"/></g><g id="middle"><rect id="Bar_1" data-name="Bar 1" class="cls-3" x="34.02" y="266.43" width="70" height="7" rx="3.5"/></g></g><g id="Search"><circle id="BLUE_CIRCLE" data-name="BLUE CIRCLE" class="cls-4" cx="69.02" cy="80.17" r="56"/><circle id="Handle" class="cls-5" cx="53.53" cy="64.67" r="25"/><rect id="Lens" class="cls-3" x="66.52" y="96.82" width="50" height="7" transform="translate(97.74 -35.33) rotate(45)"/></g></g></svg>